<svg xmlns="http://www.w3.org/2000/svg" width="1200" height="630" viewBox="0 0 1200 630" fill="none">
  <defs>
    <pattern id="grid" width="28" height="28" patternUnits="userSpaceOnUse">
      <circle cx="1" cy="1" r="1" fill="#16F3A9" opacity="0.07"/>
    </pattern>
  </defs>
  <rect width="1200" height="630" fill="#0A0B0E"/>
  <rect width="1200" height="630" fill="url(#grid)"/>
  <rect x="0" y="0" width="1200" height="6" fill="#16F3A9"/>

  <g transform="translate(96 150)">
    <g transform="scale(2.4)">
      <g stroke="#16F3A9" stroke-width="2" stroke-linejoin="round" fill="none" opacity="0.5">
        <polygon points="36.82,16.6 43.23,20.3 43.23,27.7 36.82,31.4 30.41,27.7 30.41,20.3" />
        <polygon points="11.18,16.6 17.59,20.3 17.59,27.7 11.18,31.4 4.77,27.7 4.77,20.3" />
        <polygon points="30.41,27.7 36.82,31.4 36.82,38.8 30.41,42.5 24,38.8 24,31.4" />
        <polygon points="30.41,5.5 36.82,9.2 36.82,16.6 30.41,20.3 24,16.6 24,9.2" />
        <polygon points="17.59,27.7 24,31.4 24,38.8 17.59,42.5 11.18,38.8 11.18,31.4" />
        <polygon points="17.59,5.5 24,9.2 24,16.6 17.59,20.3 11.18,16.6 11.18,9.2" />
      </g>
      <polygon points="24,16.6 30.41,20.3 30.41,27.7 24,31.4 17.59,27.7 17.59,20.3" fill="#16F3A9" />
      <path d="M20.9 26.84 a3.1 3.1 0 1 0 6.2 0 C27.1 24.36 25.24 21.88 24 20.02 C22.76 21.88 20.9 24.36 20.9 26.84 Z" fill="#0A0B0E" />
    </g>
  </g>

  <text x="232" y="205" font-family="Helvetica, Arial, sans-serif" font-size="34" font-weight="700" letter-spacing="6" fill="#E4E9F0">NECTAR NETWORK</text>

  <text x="96" y="360" font-family="Helvetica, Arial, sans-serif" font-size="76" font-weight="800" fill="#E8EDF3" letter-spacing="-2">Pooled liquidations</text>
  <text x="96" y="440" font-family="Helvetica, Arial, sans-serif" font-size="76" font-weight="800" letter-spacing="-2"><tspan fill="#E8EDF3">for </tspan><tspan fill="#16F3A9">Soroban DeFi</tspan></text>

  <text x="98" y="520" font-family="'DM Mono', monospace, Courier" font-size="26" fill="#8A93A3">Documentation · Depositors · Operators · Developers</text>

  <text x="98" y="588" font-family="'DM Mono', monospace, Courier" font-size="22" fill="#16F3A9">docs.nectarnetwork.fun</text>
  <text x="1104" y="588" text-anchor="end" font-family="'DM Mono', monospace, Courier" font-size="22" fill="#5B6473">Built on Stellar · SCF #42</text>
</svg>
